# xmcd
#
# Track frame offsets: 
#        150
#        20644
#        45575
#        62612
#        78345
#        102206
#        118003
#        134818
#        148039
#        162845
#        177658
#        193707
#        219909
#        235288
#        260790
#
# Disc length: 3690 seconds
#
# Revision: 0
# Processed by: cddbd v1.5.2PL0 Copyright (c) Steve Scherf et al.
# Submitted via: ExactAudioCopy v1.0b4
#
DISCID=df0e680f
DTITLE=Krausberry - 31 let B
DYEAR=2015
DGENRE=Blues
TTITLE0=Emil
TTITLE1=Horoskop
TTITLE2=Táhne mi na čtyřicet
TTITLE3=Kořenová zelenina
TTITLE4=Starý časy
TTITLE5=Do nebe
TTITLE6=Peníze
TTITLE7=Na Hrad!
TTITLE8=Ptáci
TTITLE9=Horko
TTITLE10=Ve stínu lípy (Jumpin' At Shadows)
TTITLE11=To
TTITLE12=Neříkej mi baby
TTITLE13=Náš kluk
TTITLE14=Nastydlá
EXTD=
EXTT0=
EXTT1=
EXTT2=
EXTT3=
EXTT4=
EXTT5=
EXTT6=
EXTT7=
EXTT8=
EXTT9=
EXTT10=
EXTT11=
EXTT12=
EXTT13=
EXTT14=
PLAYORDER=
